<?xml version="1.0" ?><!DOCTYPE svg  PUBLIC '-//W3C//DTD SVG 1.1//EN'  'http://www.w3.org/Graphics/SVG/1.1/DTD/svg11.dtd'><svg enable-background="new 0 0 48 48" height="48px" version="1.1" viewBox="0 0 48 48" width="48px" xml:space="preserve" xmlns="http://www.w3.org/2000/svg" xmlns:xlink="http://www.w3.org/1999/xlink"><g id="Layer_4"><path d="M42.93,25.475L25.21,14.243v-1.723c2.905-0.564,5.1-3.117,5.1-6.188c0-3.484-2.824-6.31-6.31-6.31   c-3.485,0-6.31,2.825-6.31,6.31h2.524c0-2.09,1.694-3.785,3.786-3.785s3.786,1.695,3.786,3.785c0,2.093-1.694,3.786-3.786,3.786   v0.008h-1.263v4.149L5.07,25.475l0.033,0.051H5.07v2.524h10.096v19.928h17.667V28.05H42.93v-2.524h-0.033L42.93,25.475z    M30.31,41.772H17.69v-3.891H30.31V41.772z M32.834,25.525V24H15.167v1.525H9.703L24,16.464l14.297,9.062H32.834z" fill="#241F20"/></g></svg>